<svg t="1761745657691" class="icon" viewBox="0 0 1137 1024" version="1.1" xmlns="http://www.w3.org/2000/svg" p-id="6845" width="200" height="200"><path d="M56.888889 739.555556h227.555555a56.888889 56.888889 0 0 1 56.888889 56.888888v170.666667a56.888889 56.888889 0 0 1-56.888889 56.888889H56.888889a56.888889 56.888889 0 0 1-56.888889-56.888889v-170.666667a56.888889 56.888889 0 0 1 56.888889-56.888888z m170.666667 113.777777H113.777778v56.888889h113.777778z" p-id="6846"></path><path d="M170.666667 0h796.444444a56.888889 56.888889 0 0 1 56.888889 56.888889v284.444444a56.888889 56.888889 0 0 1-56.888889 56.888889H170.666667a56.888889 56.888889 0 0 1-56.888889-56.888889V56.888889a56.888889 56.888889 0 0 1 56.888889-56.888889z m739.555555 113.777778H227.555556v170.666666h682.666666z" p-id="6847"></path><path d="M568.888889 830.577778a56.888889 56.888889 0 0 1-56.888889-56.888889V364.088889a56.888889 56.888889 0 1 1 113.777778 0v409.6a56.888889 56.888889 0 0 1-56.888889 56.888889z" p-id="6848"></path><path d="M978.488889 830.577778a56.888889 56.888889 0 0 1-56.888889-56.888889V625.777778H216.177778v147.911111a56.888889 56.888889 0 0 1-113.777778 0V568.888889a56.888889 56.888889 0 0 1 56.888889-56.888889h819.2a56.888889 56.888889 0 0 1 56.888889 56.888889v204.8a56.888889 56.888889 0 0 1-56.888889 56.888889z" p-id="6849"></path><path d="M853.333333 739.555556h227.555556a56.888889 56.888889 0 0 1 56.888889 56.888888v170.666667a56.888889 56.888889 0 0 1-56.888889 56.888889h-227.555556a56.888889 56.888889 0 0 1-56.888889-56.888889v-170.666667a56.888889 56.888889 0 0 1 56.888889-56.888888z m170.666667 113.777777h-113.777778v56.888889h113.777778z" p-id="6850"></path><path d="M455.111111 739.555556h227.555556a56.888889 56.888889 0 0 1 56.888889 56.888888v170.666667a56.888889 56.888889 0 0 1-56.888889 56.888889H455.111111a56.888889 56.888889 0 0 1-56.888889-56.888889v-170.666667a56.888889 56.888889 0 0 1 56.888889-56.888888z m170.666667 113.777777H512v56.888889h113.777778z" p-id="6851"></path><path d="M364.088889 259.160494h-51.2a56.888889 56.888889 0 1 1 0-113.777778h51.2a56.888889 56.888889 0 0 1 0 113.777778z" p-id="6852"></path></svg>
