<svg t="1761745988150" class="icon" viewBox="0 0 1024 1024" version="1.1" xmlns="http://www.w3.org/2000/svg" p-id="18427" width="200" height="200"><path d="M128 469.3504h256c47.1552 0 85.3504-38.1952 85.3504-85.3504v-256a128 128 0 0 0-128-128H170.6496A170.6496 170.6496 0 0 0 0 170.6496v170.7008a128 128 0 0 0 128 128z m-42.6496-298.7008a85.3504 85.3504 0 0 1 85.2992-85.2992h170.7008c23.552 0 42.6496 19.0976 42.6496 42.6496v256h-256a42.6496 42.6496 0 0 1-42.6496-42.6496V170.6496zM853.2992 0h-170.6496a128 128 0 0 0-128 128v256c0 47.1552 38.1952 85.3504 85.3504 85.3504h256a128 128 0 0 0 128-128V170.5984A170.6496 170.6496 0 0 0 853.2992 0z m85.3504 341.3504c0 23.552-19.0976 42.6496-42.6496 42.6496h-256v-256c0-23.552 19.0976-42.6496 42.6496-42.6496l170.6496-0.0512c47.1552 0 85.3504 38.1952 85.3504 85.3504v170.7008zM896 554.6496h-256c-47.1552 0-85.3504 38.1952-85.3504 85.3504v256a128 128 0 0 0 128 128h170.752A170.6496 170.6496 0 0 0 1024 853.2992v-170.6496a128 128 0 0 0-128-128z m42.6496 298.6496c0 47.1552-38.1952 85.3504-85.3504 85.3504h-170.6496a42.6496 42.6496 0 0 1-42.6496-42.6496v-256h256c23.552 0 42.6496 19.0976 42.6496 42.6496v170.6496zM469.3504 896v-256c0-47.1552-38.1952-85.3504-85.3504-85.3504h-256a128 128 0 0 0-128 128v170.7008A170.6496 170.6496 0 0 0 170.6496 1024h170.7008a128 128 0 0 0 128-128z m-85.3504 0c0 23.552-19.0976 42.6496-42.6496 42.6496H170.7008a85.3504 85.3504 0 0 1-85.3504-85.3504v-170.6496c0-23.552 19.0976-42.6496 42.6496-42.6496h256v256z" p-id="18428"></path></svg>
