<svg t="1761745719045" class="icon" viewBox="0 0 1024 1024" version="1.1" xmlns="http://www.w3.org/2000/svg" p-id="10998" width="200" height="200"><path d="M38.83905 0v926.315789h350.989474v-67.368421H106.207471L105.533787 67.368421h633.936842v355.031579h67.368421V0H38.83905z" p-id="10999"></path><path d="M193.112734 317.305263h372.547369v67.368421H193.112734zM594.628524 317.305263h82.189474v67.368421H594.628524zM193.112734 173.136842h372.547369v67.368421H193.112734zM594.628524 173.136842h82.189474v67.368421H594.628524zM385.786419 633.936842v-11.452631c-6.063158-25.6-10.105263-51.2-18.863158-80.168422a90.273684 90.273684 0 0 0-4.71579-12.126315 42.442105 42.442105 0 0 0-5.389473-8.757895 20.884211 20.884211 0 0 0-7.410527-6.736842 30.989474 30.989474 0 0 0-16.842105-5.389474 41.094737 41.094737 0 0 0-18.189474 6.736842l-5.389473 4.042106-8.757895 8.08421c-10.778947 10.105263-20.210526 20.210526-29.642105 29.642105-37.052632 39.747368-72.757895 80.168421-107.789474 121.263158l55.915789 43.11579c30.315789-43.115789 61.978947-86.905263 94.31579-128.673685l15.494737-18.863157c6.063158 18.189474 12.126316 37.726316 18.863158 57.263157 0 6.736842 4.042105 12.8 7.410526 20.210527l5.389474 11.452631 5.389473 8.084211a26.273684 26.273684 0 0 0 14.147369 7.410526 21.557895 21.557895 0 0 0 10.778947 0 42.442105 42.442105 0 0 0 13.473684-10.105263l7.410527-8.08421 13.473684-16.168422 28.294737-34.357894 20.88421-49.852632a38.4 38.4 0 0 0-13.473684 5.389474 560.505263 560.505263 0 0 0-59.957895 57.263158l-10.778947 10.778947" p-id="11000"></path><path d="M713.196945 485.052632a269.473684 269.473684 0 1 0 269.473684 269.473684 269.473684 269.473684 0 0 0-269.473684-269.473684z m186.610526 161.68421h-78.147368a427.789474 427.789474 0 0 0-37.052632-95.663158A215.578947 215.578947 0 0 1 901.15484 646.736842z m-186.610526-109.136842a373.221053 373.221053 0 0 1 51.2 107.115789h-101.052632a373.221053 373.221053 0 0 1 49.852632-107.115789z m-208.842105 269.473684a210.863158 210.863158 0 0 1 0-107.789473h90.947368a442.610526 442.610526 0 0 0-3.368421 53.894736 417.684211 417.684211 0 0 0 4.042105 53.894737z m22.231579 53.894737h79.494736a431.157895 431.157895 0 0 0 39.747369 95.663158 216.252632 216.252632 0 0 1-116.547369-96.336842z m79.494736-215.578947H527.933787a216.252632 216.252632 0 0 1 117.894737-97.010527 431.831579 431.831579 0 0 0-37.052632 96.336842z m107.11579 321.347368a380.631579 380.631579 0 0 1-51.2-107.115789h103.073684a380.631579 380.631579 0 0 1-51.873684 107.115789z m67.368421-161.010526H651.891682a336.842105 336.842105 0 0 1 0-107.789474h128.673684a336.842105 336.842105 0 0 1 0 107.789474z m6.736842 149.557895a430.484211 430.484211 0 0 0 37.052632-95.663158h79.494736a216.926316 216.926316 0 0 1-119.242105 97.010526z m47.831579-149.557895a443.284211 443.284211 0 0 0 4.042105-53.894737 417.684211 417.684211 0 0 0-4.042105-53.894737h90.947368a215.578947 215.578947 0 0 1 7.410527 53.894737 209.515789 209.515789 0 0 1-7.410527 53.894737z m0 0" p-id="11001"></path></svg>
